<?xml version="1.0" encoding="UTF-8" standalone="no" ?>
<!DOCTYPE svg PUBLIC "-//W3C//DTD SVG 1.1//EN" "http://www.w3.org/Graphics/SVG/1.1/DTD/svg11.dtd">
<svg xmlns="http://www.w3.org/2000/svg" xmlns:xlink="http://www.w3.org/1999/xlink" version="1.1" width="1080" height="1080" viewBox="0 0 1080 1080" xml:space="preserve">
<desc>Created with Fabric.js 5.2.4</desc>
<defs>
</defs>
<g transform="matrix(1 0 0 1 540 540)" id="5775011a-9728-4141-bcff-8def6f7ebad8"  >
</g>
<g transform="matrix(1 0 0 1 540 540)" id="3771d986-d997-446e-b165-1254f5bcbf4a"  >
<rect style="stroke: none; stroke-width: 1; stroke-dasharray: none; stroke-linecap: butt; stroke-dashoffset: 0; stroke-linejoin: miter; stroke-miterlimit: 4; fill: rgb(255,255,255); fill-rule: nonzero; opacity: 1; visibility: hidden;" vector-effect="non-scaling-stroke"  x="-540" y="-540" rx="0" ry="0" width="1080" height="1080" />
</g>
<g transform="matrix(0 0 0 0 0 0)"  >
<g style=""   >
</g>
</g>
<g transform="matrix(1 0 0 1 479.26 543.21)"  >
<path style="stroke: none; stroke-width: 1; stroke-dasharray: none; stroke-linecap: butt; stroke-dashoffset: 0; stroke-linejoin: miter; stroke-miterlimit: 4; fill: rgb(234,73,93); fill-rule: nonzero; opacity: 1;" vector-effect="non-scaling-stroke"  transform=" translate(-14.16, -25.71)" d="M 25.384 6.488 C 27.665 6.062 28.886 7.8100000000000005 28.055 10.408000000000001 L 26.35 15.717000000000002 L 17.919000000000004 17.291000000000004 L 19.667000000000005 11.871000000000004 L 17.392000000000007 12.399000000000004 L 13.774000000000006 23.679000000000002 C 15.559000000000006 23.346000000000004 17.440000000000005 22.943 19.276000000000007 22.6 C 21.756000000000007 22.137 23.839000000000006 23.256 22.807000000000006 26.619 L 19.268000000000004 37.572 C 18.170000000000005 40.688 17.270000000000003 42.259 13.898000000000003 42.889 L 2.9380000000000024 44.935 C 0.6070000000000024 45.370000000000005 -0.5639999999999974 43.613 0.26700000000000257 41.015 L 1.9300000000000026 35.818 L 10.361000000000002 34.244 L 8.606000000000002 39.562 L 10.887000000000002 39.135999999999996 L 14.551000000000002 27.795999999999996 C 12.518000000000002 28.174999999999997 10.934000000000001 28.522999999999996 8.950000000000003 28.892999999999997 C 5.432000000000003 29.601999999999997 4.762000000000003 27.074999999999996 5.469000000000003 24.863999999999997 L 9.054000000000002 13.850999999999997 L 7.134000000000002 9.894999999999998 C 13.631 8.682 18.937 7.692 25.384 6.488 z" stroke-linecap="round" />
</g>
<g transform="matrix(1 0 0 1 499.59 543.31)"  >
<path style="stroke: none; stroke-width: 1; stroke-dasharray: none; stroke-linecap: butt; stroke-dashoffset: 0; stroke-linejoin: miter; stroke-miterlimit: 4; fill: rgb(234,73,93); fill-rule: nonzero; opacity: 1;" vector-effect="non-scaling-stroke"  transform=" translate(-34.5, -25.81)" d="M 28.263 21.078 L 29.85 16.259 L 27.880000000000003 12.312000000000001 L 35.567 10.877 C 37.848 10.451 39.069 12.199000000000002 38.238 14.797 L 36.743 19.495 L 43.091 18.310000000000002 C 45.422000000000004 17.875000000000004 46.643 19.622000000000003 45.811 22.221000000000004 L 42.186 33.398 L 44.106 37.354000000000006 C 43.263000000000005 37.511 39.94 38.13100000000001 37.064 38.668000000000006 C 33.89 39.260000000000005 33.309 36.562000000000005 33.808 35.013000000000005 L 37.373 23.691000000000006 L 35.236999999999995 24.038000000000007 L 30.169999999999995 39.95400000000001 C 28.532999999999994 40.25900000000001 27.541999999999994 40.44400000000001 25.904999999999994 40.75000000000001 C 23.573999999999995 41.18500000000001 22.352999999999994 39.43800000000001 23.184999999999995 36.839000000000006 L 26.809999999999995 25.662000000000006 L 24.889999999999993 21.706000000000007 L 28.263 21.078 z" stroke-linecap="round" />
</g>
<g transform="matrix(1 0 0 1 520.62 543.06)"  >
<path style="stroke: none; stroke-width: 1; stroke-dasharray: none; stroke-linecap: butt; stroke-dashoffset: 0; stroke-linejoin: miter; stroke-miterlimit: 4; fill: rgb(234,73,93); fill-rule: nonzero; opacity: 1;" vector-effect="non-scaling-stroke"  transform=" translate(-55.52, -25.56)" d="M 46.882 36.784 C 44.550999999999995 37.219 43.469 35.29 44.254 32.751999999999995 L 45.97 27.597999999999995 C 46.933 24.714999999999996 48.583 24.614999999999995 50.22 24.309999999999995 L 57.364999999999995 23.027999999999995 L 58.349999999999994 19.724999999999994 L 51.803999999999995 20.946999999999996 L 49.93299999999999 16.981999999999996 C 56.528999999999996 15.750999999999996 57.520999999999994 15.565999999999995 64.11699999999999 14.334999999999996 C 66.448 13.899999999999995 67.61899999999999 15.656999999999996 66.73799999999999 18.263999999999996 L 63.16299999999998 29.431999999999995 L 65.03399999999998 33.39699999999999 C 58.487 34.618 53.478 35.553 46.882 36.784 z M 54.685 31.065 L 55.908 27.562 L 53.776 27.96 L 52.603 31.454 L 54.685 31.065 z" stroke-linecap="round" />
</g>
<g transform="matrix(1 0 0 1 543.7 534.38)"  >
<path style="stroke: none; stroke-width: 1; stroke-dasharray: none; stroke-linecap: butt; stroke-dashoffset: 0; stroke-linejoin: miter; stroke-miterlimit: 4; fill: rgb(234,73,93); fill-rule: nonzero; opacity: 1;" vector-effect="non-scaling-stroke"  transform=" translate(-78.61, -16.88)" d="M 81.478 11.146 L 83.01599999999999 6.337000000000001 L 81.04599999999999 2.3900000000000006 L 88.73299999999999 0.9550000000000005 C 91.014 0.5290000000000006 92.23499999999999 2.2770000000000006 91.404 4.875 L 89.577 10.622 C 89.53399999999999 10.734 88.457 14.158 88.414 14.27 L 86.702 19.476 L 84.836 25.386 L 86.756 29.342 L 68.508 32.8 C 66.17699999999999 33.235 65.006 31.477999999999998 65.788 28.888999999999996 L 69.413 17.711999999999996 C 70.202 15.225999999999996 72.003 12.861999999999997 74.089 12.524999999999995 L 81.478 11.146 z M 79.972 15.69 L 77.839 16.088 L 74.229 27.47 L 76.362 27.072 L 78.314 20.938 L 79.972 15.69 z" stroke-linecap="round" />
</g>
<g transform="matrix(1 0 0 1 564.68 534.83)"  >
<path style="stroke: none; stroke-width: 1; stroke-dasharray: none; stroke-linecap: butt; stroke-dashoffset: 0; stroke-linejoin: miter; stroke-miterlimit: 4; fill: rgb(234,73,93); fill-rule: nonzero; opacity: 1;" vector-effect="non-scaling-stroke"  transform=" translate(-99.59, -17.33)" d="M 108.206 6.106 C 110.537 5.671 111.708 7.428 110.87700000000001 10.026 L 107.302 21.192999999999998 C 106.05000000000001 25.012999999999998 105.155 25.907999999999998 101.68400000000001 26.555999999999997 C 98.11300000000001 27.221999999999998 94.543 27.888999999999996 90.97200000000001 28.554999999999996 C 88.641 28.989999999999995 87.47000000000001 27.232999999999997 88.301 24.634999999999998 L 91.876 13.467999999999998 L 90.055 9.492999999999999 C 96.105 8.364 102.155 7.235 108.206 6.106 z M 98.824 22.827 L 102.485 11.436000000000002 L 100.352 11.834000000000001 L 96.64200000000001 23.235 L 98.824 22.827 z" stroke-linecap="round" />
</g>
<g transform="matrix(1 0 0 1 591.59 529.27)"  >
<path style="stroke: none; stroke-width: 0; stroke-dasharray: none; stroke-linecap: butt; stroke-dashoffset: 0; stroke-linejoin: miter; stroke-miterlimit: 4; fill: rgb(234,73,93); fill-rule: nonzero; opacity: 1;" vector-effect="non-scaling-stroke"  transform=" translate(-126.99, -12.27)" d="M 113.143 24.469 C 110.812 24.904 109.591 23.157 110.423 20.558 L 114.048 9.381 L 112.277 5.397 L 119.171 4.11 C 122.441 3.4480000000000004 122.926 6.216 122.427 7.765000000000001 L 118.86200000000001 19.087 L 120.89500000000001 18.707 C 120.89500000000001 18.707 120.94100000000002 18.646 120.93800000000002 18.595000000000002 L 125.96500000000002 2.8420000000000023 L 129.68500000000003 2.1480000000000024 C 132.90500000000003 1.4950000000000023 133.44000000000003 4.254000000000002 132.94100000000003 5.803000000000003 L 129.37600000000003 17.125 L 131.51200000000003 16.778 L 136.57900000000004 0.8619999999999983 C 138.21600000000004 0.5569999999999984 139.20700000000005 0.37099999999999833 140.84400000000002 0.06599999999999828 C 143.175 -0.3690000000000017 144.39600000000002 1.3779999999999983 143.56400000000002 3.9769999999999985 L 139.93900000000002 15.153999999999998 L 141.859 19.11 C 132.286 20.897 122.715 22.683 113.143 24.469 z" stroke-linecap="round" />
</g>
<g transform="matrix(1 0 0 1 582.22 550.15)"  >
<path style="stroke: none; stroke-width: 1; stroke-dasharray: none; stroke-linecap: butt; stroke-dashoffset: 0; stroke-linejoin: miter; stroke-miterlimit: 4; fill: rgb(204,58,58); fill-rule: nonzero; opacity: 1;" vector-effect="non-scaling-stroke"  transform=" translate(-117.12, -32.65)" d="M 118.998 32.559 L 118.48400000000001 34.181999999999995 L 116.48100000000001 34.556 C 115.41100000000002 34.756 114.873 33.949999999999996 115.25500000000001 32.757 L 115.81300000000002 31.101999999999997 L 117.74800000000002 30.740999999999996 C 118.817 30.541 119.357 31.371 118.998 32.559 z" stroke-linecap="round" />
</g>
<g transform="matrix(1 0 0 1 591.22 545.79)"  >
<path style="stroke: none; stroke-width: 1; stroke-dasharray: none; stroke-linecap: butt; stroke-dashoffset: 0; stroke-linejoin: miter; stroke-miterlimit: 4; fill: rgb(204,58,58); fill-rule: nonzero; opacity: 1;" vector-effect="non-scaling-stroke"  transform=" translate(-126.12, -28.29)" d="M 130.079 23.142 C 131.149 22.942 131.709 23.745 131.305 24.942 L 129.64100000000002 30.072 L 130.54500000000002 31.884 C 130.13500000000002 31.96 128.633 32.241 127.28900000000002 32.492 C 125.81100000000002 32.791999999999994 125.58800000000002 31.520999999999997 125.79400000000001 30.813999999999997 L 127.40800000000002 25.620999999999995 L 126.47300000000001 25.771999999999995 L 124.12400000000001 33.081999999999994 C 123.373 33.221999999999994 122.91700000000002 33.306999999999995 122.16600000000001 33.446999999999996 C 121.11900000000001 33.641999999999996 120.53600000000002 32.843999999999994 120.94000000000001 31.647999999999996 L 122.58100000000002 26.521999999999995 L 121.72200000000002 24.701999999999995 C 128.759 23.388 124.297 24.221 130.079 23.142 z" stroke-linecap="round" />
</g>
<g transform="matrix(1 0 0 1 601.87 543.83)"  >
<path style="stroke: none; stroke-width: 1; stroke-dasharray: none; stroke-linecap: butt; stroke-dashoffset: 0; stroke-linejoin: miter; stroke-miterlimit: 4; fill: rgb(204,58,58); fill-rule: nonzero; opacity: 1;" vector-effect="non-scaling-stroke"  transform=" translate(-136.78, -26.33)" d="M 140.735 21.177 C 141.805 20.977 142.365 21.78 141.961 22.977 L 141.751 23.636 L 137.881 24.358 L 138.086 23.628 L 137.13000000000002 23.806 C 137.00400000000002 24.330000000000002 136.80900000000003 24.868000000000002 136.63700000000003 25.401 L 139.87000000000003 24.798 L 140.74700000000004 26.543 L 135.96600000000004 27.435 L 135.47300000000004 29.029999999999998 L 136.42900000000003 28.851999999999997 C 136.50600000000003 28.622999999999998 136.56200000000004 28.421999999999997 136.63900000000004 28.192999999999998 L 140.50900000000004 27.470999999999997 L 140.29800000000003 28.106999999999996 C 139.74600000000004 29.855999999999995 139.35700000000003 30.238999999999997 137.76500000000004 30.559999999999995 C 136.12600000000003 30.865999999999996 134.46400000000006 31.175999999999995 132.82500000000005 31.481999999999996 C 131.75500000000005 31.681999999999995 131.19500000000005 30.878999999999994 131.59900000000005 29.681999999999995 L 133.26300000000003 24.551999999999996 L 132.38200000000003 22.735999999999997 C 135.157 22.218 137.957 21.695 140.735 21.177 z" stroke-linecap="round" />
</g>
<g transform="matrix(1 0 0 1 610.86 540.17)"  >
<path style="stroke: none; stroke-width: 1; stroke-dasharray: none; stroke-linecap: butt; stroke-dashoffset: 0; stroke-linejoin: miter; stroke-miterlimit: 4; fill: rgb(204,58,58); fill-rule: nonzero; opacity: 1;" vector-effect="non-scaling-stroke"  transform=" translate(-145.76, -22.68)" d="M 141.836 27.7 L 143.477 22.573999999999998 L 142.506 20.799 L 144.145 20.493 L 144.852 18.308999999999997 L 143.971 16.493 L 147.5 15.833999999999998 C 148.547 15.638999999999998 149.085 16.444999999999997 148.726 17.633 L 148.038 19.766 L 148.949 19.595999999999997 L 149.806 21.391999999999996 L 147.37 21.846999999999994 L 145.68800000000002 27.052999999999994 L 146.56900000000002 28.868999999999993 L 143.086 29.51899999999999 C 142.017 29.718 141.453 28.869 141.836 27.7 z" stroke-linecap="round" />
</g>
</svg>